<?xml version="1.0" encoding="UTF-8"?>
<svg width="18px" height="19px" viewBox="0 0 18 19" version="1.1" xmlns="http://www.w3.org/2000/svg" xmlns:xlink="http://www.w3.org/1999/xlink">
    <!-- Generator: Sketch 52.5 (67469) - http://www.bohemiancoding.com/sketch -->
    <title>Artboard</title>
    <desc>Created with Sketch.</desc>
    <g id="Artboard" stroke="none" stroke-width="1" fill="none" fill-rule="evenodd">
        <g id="Group-5">
            <path d="M8,15.75 C3.71979319,15.75 0.25,12.2802068 0.25,8 C0.25,3.71979319 3.71979319,0.25 8,0.25 C12.2802068,0.25 15.75,3.71979319 15.75,8 C15.75,12.2802068 12.2802068,15.75 8,15.75 Z M8,14.25 C11.4517797,14.25 14.25,11.4517797 14.25,8 C14.25,4.54822031 11.4517797,1.75 8,1.75 C4.54822031,1.75 1.75,4.54822031 1.75,8 C1.75,11.4517797 4.54822031,14.25 8,14.25 Z" id="Oval" fill="#666666" fill-rule="nonzero"></path>
            <rect id="Rectangle-2" stroke="#666666" transform="translate(14.750000, 15.500000) rotate(-45.000000) translate(-14.750000, -15.500000) " x="14.5" y="12.5" width="1" height="6" rx="0.5"></rect>
        </g>
    </g>
</svg>