<?xml version="1.0" encoding="UTF-8"?>
<svg width="16px" height="20px" viewBox="0 0 16 20" version="1.1" xmlns="http://www.w3.org/2000/svg" xmlns:xlink="http://www.w3.org/1999/xlink">
    <!-- Generator: Sketch 52.5 (67469) - http://www.bohemiancoding.com/sketch -->
    <title>Artboard</title>
    <desc>Created with Sketch.</desc>
    <g id="Artboard" stroke="none" stroke-width="1" fill="none" fill-rule="evenodd">
        <g id="outline-description-24px" transform="translate(-4.000000, -2.000000)">
            <polygon id="Path" points="0 0 24 0 24 24 0 24"></polygon>
            <path d="M8.5,15.6 L15.5,15.6 L15.5,17.4 L8.5,17.4 L8.5,15.6 Z M8.5,12 L15.5,12 L15.5,13.8 L8.5,13.8 L8.5,12 Z M13.75,3 L6.75,3 C5.7875,3 5,3.81 5,4.8 L5,19.2 C5,20.19 5.77875,21 6.74125,21 L17.25,21 C18.2125,21 19,20.19 19,19.2 L19,8.4 L13.75,3 Z M17.25,19.2 L6.75,19.2 L6.75,4.8 L12.875,4.8 L12.875,9.3 L17.25,9.3 L17.25,19.2 Z" id="Shape" fill="#B9B9B9" fill-rule="nonzero"></path>
        </g>
    </g>
</svg>