<?xml version="1.0" encoding="UTF-8"?>
<svg width="30px" height="31px" viewBox="0 0 30 31" version="1.1" xmlns="http://www.w3.org/2000/svg" xmlns:xlink="http://www.w3.org/1999/xlink">
    <!-- Generator: Sketch 52.5 (67469) - http://www.bohemiancoding.com/sketch -->
    <title>Artboard</title>
    <desc>Created with Sketch.</desc>
    <g id="Artboard" stroke="none" stroke-width="1" fill="none" fill-rule="evenodd" opacity="0.804152716">
        <g id="Group-25" transform="translate(1.000000, 1.000000)" fill="#FFFFFF">
            <path d="M22.2835283,0.586062718 L22.2835283,2.10814014 L1.50380531,2.10814014 L1.50380531,23.2980011 L10.8675346,23.2980011 L13.4632523,26.433454 L16.1857309,23.2980011 L25.4601221,23.2980011 L25.4601221,10.9405351 L26.9351474,10.9405351 L26.9351474,11.7539586 C26.9351474,14.375163 26.9351474,18.3069696 26.9351474,23.5493784 C26.9351474,23.9076284 26.7932573,24.2512054 26.5406913,24.5045264 C26.2881253,24.7578474 25.9455723,24.9001617 25.58839,24.9001617 L17.179237,24.9001617 L13.4163969,28.9525115 L9.82594177,24.9001617 L1.34675736,24.9001617 C0.989575091,24.9001617 0.647022082,24.7578474 0.394456083,24.5045264 C0.141890085,24.2512054 -1.0464334e-08,23.9076284 -1.0658141e-14,23.5493784 L-1.0658141e-14,1.93684598 C-1.0658141e-14,1.19082898 0.602963807,0.586062718 1.34675736,0.586062718 L22.2835283,0.586062718 Z" id="Combined-Shape" fill-rule="nonzero"></path>
            <path d="M20.3159633,15.6680834 C18.8116849,18.5008723 16.8339927,19.8285724 13.5640659,19.8285724 C10.2968325,19.8285724 8.16094406,18.5008723 6.74693878,15.6680834 L8.59318442,14.7957329 C9.42413373,16.7084421 11.3675046,17.9849323 13.5640659,17.9849323 C15.7619739,17.9849323 17.7066915,16.7057405 18.5362941,14.7930314 L20.3159633,15.6680834 Z" id="Path"></path>
            <path d="M28.4081633,1.92487367 C28.0455947,1.56666831 27.4592598,1.56808365 27.0984493,1.92803518 L17.6698445,10.5817451 C17.4363519,10.8146783 17.345742,11.1536107 17.4321465,11.4708698 C17.518551,11.7881288 17.7688431,12.0355152 18.0887401,12.119841 C18.4086371,12.2041667 18.7495392,12.1126208 18.9830317,11.8796875 L28.4113471,3.22540276 C28.7720823,2.86537683 28.7706569,2.28315381 28.4081633,1.92487367 Z" id="Path"></path>
        </g>
    </g>
</svg>