<?xml version="1.0" encoding="utf-8"?>
<!-- Generator: Adobe Illustrator 16.0.0, SVG Export Plug-In . SVG Version: 6.00 Build 0)  -->
<!DOCTYPE svg PUBLIC "-//W3C//DTD SVG 1.1//EN" "http://www.w3.org/Graphics/SVG/1.1/DTD/svg11.dtd">
<svg version="1.1" id="图层_1" xmlns="http://www.w3.org/2000/svg" xmlns:xlink="http://www.w3.org/1999/xlink" x="0px" y="0px"
	 width="342px" height="342px" viewBox="-114 -114 342 342" enable-background="new -114 -114 342 342" xml:space="preserve">
<polyline fill="none" stroke="#06EB8E" stroke-width="2" stroke-linecap="square" stroke-miterlimit="10" points="200.186,-113 
	227,-113 227,-77.583 "/>
<line fill="none" stroke="#06EB8E" stroke-width="2" stroke-linecap="square" stroke-miterlimit="10" x1="-26.989" y1="-113" x2="121.764" y2="-113"/>
<polyline fill="none" stroke="#06EB8E" stroke-width="2" stroke-linecap="square" stroke-miterlimit="10" points="-113,-76.571 
	-113,-113 -83.15,-113 "/>
<line fill="none" stroke="#06EB8E" stroke-width="2" stroke-linecap="square" stroke-miterlimit="10" x1="-113" y1="105.571" x2="-113" y2="-43.686"/>
<line fill="none" stroke="#06EB8E" stroke-width="2" stroke-linecap="square" stroke-miterlimit="10" x1="-113" y1="170.839" x2="-113" y2="147.567"/>
<polyline fill="none" stroke="#06EB8E" stroke-width="2" stroke-linecap="square" stroke-miterlimit="10" points="-80.111,227 
	-113,227 -113,195.632 "/>
<line fill="none" stroke="#06EB8E" stroke-width="2" stroke-linecap="square" stroke-miterlimit="10" x1="123.282" y1="227" x2="65.604" y2="227"/>
<polyline fill="none" stroke="#06EB8E" stroke-width="2" stroke-linecap="square" stroke-miterlimit="10" points="227,202.21 
	227,227 203.725,227 "/>
<line fill="none" stroke="#06EB8E" stroke-width="2" stroke-linecap="square" stroke-miterlimit="10" x1="227" y1="-46.718" x2="227" y2="102.536"/>
<polyline fill="none" stroke="#06EB8E" stroke-linecap="square" stroke-miterlimit="10" points="-98.5,-17.701 -98.5,-98.5 
	-47.172,-98.5 "/>
<line fill="none" stroke="#06EB8E" stroke-linecap="square" stroke-miterlimit="10" x1="-98.5" y1="153.044" x2="-98.5" y2="114.426"/>
<polyline fill="none" stroke="#06EB8E" stroke-linecap="square" stroke-miterlimit="10" points="-53.78,212.5 -98.5,212.5 
	-98.5,173.881 "/>
<line fill="none" stroke="#06EB8E" stroke-linecap="square" stroke-miterlimit="10" x1="109.852" y1="212.5" x2="-19.732" y2="212.5"/>
<polyline fill="none" stroke="#06EB8E" stroke-linecap="square" stroke-miterlimit="10" points="212.5,142.373 212.5,212.5 
	153.554,212.5 "/>
<line fill="none" stroke="#06EB8E" stroke-linecap="square" stroke-miterlimit="10" x1="212.5" y1="3.642" x2="212.5" y2="71.739"/>
<polyline fill="none" stroke="#06EB8E" stroke-linecap="square" stroke-miterlimit="10" points="106.293,-98.5 212.5,-98.5 
	212.5,-81.73 "/>
<line fill="none" stroke="#06EB8E" stroke-linecap="square" stroke-miterlimit="10" x1="18.89" y1="-98.5" x2="78.853" y2="-98.5"/>
</svg>
