<?xml version="1.0" encoding="utf-8"?>
<!-- Generator: Adobe Illustrator 16.0.0, SVG Export Plug-In . SVG Version: 6.00 Build 0)  -->
<!DOCTYPE svg PUBLIC "-//W3C//DTD SVG 1.0//EN" "http://www.w3.org/TR/2001/REC-SVG-20010904/DTD/svg10.dtd">
<svg version="1.0" id="图层_1" xmlns="http://www.w3.org/2000/svg" xmlns:xlink="http://www.w3.org/1999/xlink" x="0px" y="0px"
	 width="114px" height="114px" viewBox="0 0 114 114" enable-background="new 0 0 114 114" xml:space="preserve">
<polyline fill="none" stroke="#06EB8E" stroke-width="2" stroke-linecap="square" stroke-miterlimit="10" points="104.167,1 113,1 
	113,12.667 "/>
<line fill="none" stroke="#06EB8E" stroke-width="2" stroke-linecap="square" stroke-miterlimit="10" x1="29.333" y1="1" x2="78.334" y2="1"/>
<polyline fill="none" stroke="#06EB8E" stroke-width="2" stroke-linecap="square" stroke-miterlimit="10" points="1,13 1,1 
	10.833,1 "/>
<line fill="none" stroke="#06EB8E" stroke-width="2" stroke-linecap="square" stroke-miterlimit="10" x1="1" y1="73" x2="1" y2="23.833"/>
<line fill="none" stroke="#06EB8E" stroke-width="2" stroke-linecap="square" stroke-miterlimit="10" x1="1" y1="94.5" x2="1" y2="86.834"/>
<polyline fill="none" stroke="#06EB8E" stroke-width="2" stroke-linecap="square" stroke-miterlimit="10" points="11.834,113 1,113 
	1,102.667 "/>
<line fill="none" stroke="#06EB8E" stroke-width="2" stroke-linecap="square" stroke-miterlimit="10" x1="78.834" y1="113" x2="59.834" y2="113"/>
<polyline fill="none" stroke="#06EB8E" stroke-width="2" stroke-linecap="square" stroke-miterlimit="10" points="113,104.834 
	113,113 105.333,113 "/>
<line fill="none" stroke="#06EB8E" stroke-width="2" stroke-linecap="square" stroke-miterlimit="10" x1="113" y1="22.834" x2="113" y2="72"/>
<polyline fill="none" stroke="#06EB8E" stroke-linecap="square" stroke-miterlimit="10" points="6,32.5 6,6 22.834,6 "/>
<line fill="none" stroke="#06EB8E" stroke-linecap="square" stroke-miterlimit="10" x1="6" y1="88.5" x2="6" y2="75.834"/>
<polyline fill="none" stroke="#06EB8E" stroke-linecap="square" stroke-miterlimit="10" points="20.667,108 6,108 6,95.334 "/>
<line fill="none" stroke="#06EB8E" stroke-linecap="square" stroke-miterlimit="10" x1="74.334" y1="108" x2="31.834" y2="108"/>
<polyline fill="none" stroke="#06EB8E" stroke-linecap="square" stroke-miterlimit="10" points="108,85 108,108 88.667,108 "/>
<line fill="none" stroke="#06EB8E" stroke-linecap="square" stroke-miterlimit="10" x1="108" y1="39.5" x2="108" y2="61.834"/>
<polyline fill="none" stroke="#06EB8E" stroke-linecap="square" stroke-miterlimit="10" points="73.167,6 108,6 108,11.5 "/>
<line fill="none" stroke="#06EB8E" stroke-linecap="square" stroke-miterlimit="10" x1="44.501" y1="6" x2="64.167" y2="6"/>
</svg>
